<mxfile host="app.diagrams.net" modified="2023-05-02T11:18:48.624Z" agent="Mozilla/5.0 (Windows NT 10.0; Win64; x64) AppleWebKit/537.36 (KHTML, like Gecko) Chrome/112.0.0.0 Safari/537.36" etag="6E4urKltolS5cpv81mj4" version="21.2.4" type="device">
  <diagram name="Page-1" id="ZD5ZzG8FoqPDB_CjAIqT">
    <mxGraphModel dx="1050" dy="549" grid="1" gridSize="10" guides="1" tooltips="1" connect="1" arrows="1" fold="1" page="1" pageScale="1" pageWidth="827" pageHeight="1169" math="0" shadow="0">
      <root>
        <mxCell id="0" />
        <mxCell id="1" parent="0" />
        <mxCell id="7PtBYK1wBsWqsw9zVJz9-1" value="&lt;font style=&quot;font-size: 16px;&quot;&gt;&lt;b&gt;RasPI (Remote Controller)&lt;/b&gt;&lt;br&gt;- Send target pressure&lt;br&gt;- Defines the depth target with controller input (sets depth level, not velocity)&amp;nbsp;&lt;br&gt;- Sends forward backward throttle level as a function of the controller output.&lt;br&gt;- Sends side ways throttle level as a function of the controller output.&amp;nbsp;&lt;br&gt;&lt;/font&gt;" style="rounded=1;whiteSpace=wrap;html=1;align=left;" parent="1" vertex="1">
          <mxGeometry x="40" y="40" width="360" height="320" as="geometry" />
        </mxCell>
        <mxCell id="7PtBYK1wBsWqsw9zVJz9-2" value="&lt;div style=&quot;&quot;&gt;&lt;b style=&quot;font-size: 16px; background-color: initial;&quot;&gt;Arduino (Submarine)&lt;/b&gt;&lt;/div&gt;&lt;font style=&quot;font-size: 16px;&quot;&gt;&lt;div style=&quot;&quot;&gt;&lt;span style=&quot;background-color: initial;&quot;&gt;- Recieves Target Pressure&lt;/span&gt;&lt;/div&gt;&lt;div style=&quot;&quot;&gt;&lt;span style=&quot;background-color: initial;&quot;&gt;- Recieves Forward/Backward throttle level&lt;/span&gt;&lt;/div&gt;&lt;div style=&quot;&quot;&gt;&lt;span style=&quot;background-color: initial;&quot;&gt;- Recieves Side ways throttle level&lt;/span&gt;&lt;/div&gt;&lt;/font&gt;" style="rounded=1;whiteSpace=wrap;html=1;align=left;" parent="1" vertex="1">
          <mxGeometry x="440" y="40" width="360" height="220" as="geometry" />
        </mxCell>
      </root>
    </mxGraphModel>
  </diagram>
</mxfile>
